<svg width="16" height="16" viewBox="0 0 16 16" fill="none" xmlns="http://www.w3.org/2000/svg">
    <path d="M13 15C13.5304 15 14.0391 14.7893 14.4142 14.4142C14.7893 14.0391 15 13.5304 15 13V7.55066L10.414 10.232L12.7373 11.4827C12.8541 11.5456 12.9411 11.6524 12.9792 11.7794C13.0173 11.9065 13.0033 12.0435 12.9403 12.1603C12.8774 12.2771 12.7706 12.3641 12.6435 12.4022C12.5165 12.4402 12.3794 12.4263 12.2627 12.3633L8.474 10.3233C8.32832 10.2449 8.16545 10.2039 8 10.2039C7.83455 10.2039 7.67168 10.2449 7.526 10.3233L3.73733 12.3633C3.62088 12.4236 3.4854 12.4357 3.3601 12.397C3.2348 12.3584 3.1297 12.2721 3.06745 12.1566C3.0052 12.0412 2.99078 11.906 3.02729 11.78C3.06381 11.6541 3.14834 11.5475 3.26267 11.4833L5.586 10.232L1 7.55066V13C1 13.5304 1.21071 14.0391 1.58579 14.4142C1.96086 14.7893 2.46957 15 3 15H13Z" fill="#6D6D6D"/>
    <path d="M1 6.39267V5.896C0.999949 5.53478 1.09773 5.18029 1.28295 4.87017C1.46818 4.56005 1.73394 4.30589 2.052 4.13467L7.052 1.44267C7.34337 1.28582 7.6691 1.20372 8 1.20372C8.3309 1.20372 8.65663 1.28582 8.948 1.44267L13.948 4.13467C14.2661 4.30589 14.5318 4.56005 14.717 4.87017C14.9023 5.18029 15.0001 5.53478 15 5.896V6.39267L9.38267 9.67667L8.948 9.44267C8.65663 9.28582 8.3309 9.20372 8 9.20372C7.6691 9.20372 7.34337 9.28582 7.052 9.44267L6.61733 9.67667L1 6.39267Z" fill="#6D6D6D"/>
</svg>