<svg width="19" height="20" viewBox="0 0 19 20" fill="none" xmlns="http://www.w3.org/2000/svg">
    <path d="M17.9811 8.79766C17.6881 8.63749 17.4471 8.39643 17.2869 8.10344C17.2652 8.06377 17.2332 8.03066 17.1942 8.0076C17.1553 7.98453 17.1109 7.97236 17.0657 7.97235C17.0204 7.97241 16.976 7.98462 16.9371 8.00771C16.8982 8.0308 16.8662 8.06391 16.8444 8.1036C16.6842 8.39649 16.4433 8.63749 16.1503 8.79766C16.1106 8.81937 16.0774 8.85137 16.0543 8.89032C16.0312 8.92926 16.019 8.97371 16.019 9.01899C16.019 9.06427 16.0312 9.10872 16.0543 9.14767C16.0774 9.18661 16.1106 9.21861 16.1503 9.24032C16.4432 9.40049 16.6842 9.64141 16.8444 9.93423C16.8661 9.974 16.8981 10.0072 16.937 10.0303C16.9759 10.0534 17.0204 10.0656 17.0657 10.0656C17.111 10.0657 17.1554 10.0535 17.1944 10.0304C17.2333 10.0073 17.2653 9.97413 17.2871 9.93438C17.4472 9.64147 17.6882 9.40053 17.9811 9.24032C18.0208 9.21858 18.0539 9.18656 18.077 9.14762C18.1001 9.10868 18.1123 9.06425 18.1123 9.01899C18.1123 8.97373 18.1001 8.9293 18.077 8.89036C18.0539 8.85142 18.0208 8.8194 17.9811 8.79766Z" fill="#FFFFFF"/>
    <path d="M4.26752 1.06577C4.12213 0.986193 4.00253 0.866498 3.92299 0.721086C3.90486 0.687971 3.87815 0.660342 3.84567 0.641096C3.81319 0.62185 3.77613 0.611694 3.73838 0.611694C3.70063 0.611694 3.66357 0.62185 3.63109 0.641096C3.59861 0.660342 3.5719 0.687971 3.55377 0.721086C3.47426 0.866449 3.35462 0.986142 3.20924 1.06562C3.17609 1.08376 3.14843 1.11049 3.12917 1.14299C3.1099 1.1755 3.09973 1.21259 3.09973 1.25038C3.09973 1.28817 3.1099 1.32527 3.12917 1.35777C3.14843 1.39028 3.17609 1.41701 3.20924 1.43515C3.35472 1.51462 3.47438 1.63424 3.55393 1.77968C3.57206 1.8128 3.59876 1.84042 3.63124 1.85967C3.66372 1.87892 3.70078 1.88907 3.73854 1.88907C3.77629 1.88907 3.81335 1.87892 3.84583 1.85967C3.87831 1.84042 3.90501 1.8128 3.92315 1.77968C4.00273 1.63429 4.12242 1.51469 4.26783 1.43515C4.30095 1.41702 4.32858 1.39031 4.34782 1.35783C4.36707 1.32535 4.37723 1.28829 4.37723 1.25054C4.37723 1.21279 4.36707 1.17573 4.34782 1.14325C4.32858 1.11077 4.30095 1.08406 4.26783 1.06593L4.26752 1.06577Z" fill="#FFFFFF"/>
    <path d="M1.97282 3.23089C1.97282 3.23065 1.97269 3.23043 1.97248 3.23031L1.74122 3.10382C1.66656 3.06298 1.60517 3.00161 1.56431 2.92697L1.43751 2.69535C1.41745 2.6586 1.38786 2.62794 1.35186 2.60658C1.31585 2.58522 1.27476 2.57394 1.2329 2.57394C1.19104 2.57394 1.14995 2.58522 1.11394 2.60658C1.07794 2.62794 1.04835 2.6586 1.02829 2.69535C0.904646 2.92131 0.718741 3.10706 0.492665 3.2305C0.455969 3.25062 0.425357 3.28024 0.404034 3.31625C0.382711 3.35226 0.37146 3.39334 0.37146 3.43519C0.37146 3.47704 0.382711 3.51812 0.404034 3.55413C0.425357 3.59014 0.455969 3.61976 0.492665 3.63988C0.718616 3.76341 0.904479 3.94915 1.02813 4.17503C1.0482 4.21178 1.07778 4.24244 1.11379 4.2638C1.14979 4.28516 1.19088 4.29643 1.23274 4.29643C1.27461 4.29643 1.3157 4.28516 1.3517 4.2638C1.3877 4.24244 1.41729 4.21178 1.43735 4.17503C1.56082 3.94938 1.74687 3.76358 1.97282 3.64066C2.00956 3.62057 2.04022 3.59097 2.06157 3.55495C2.08293 3.51894 2.0942 3.47784 2.0942 3.43597C2.0942 3.3941 2.08293 3.353 2.06157 3.31699C2.04028 3.28108 2.00975 3.25155 1.97316 3.23147C1.97295 3.23135 1.97282 3.23113 1.97282 3.23089Z" fill="#FFFFFF"/>
    <path d="M7.46618 16.4232C7.13178 15.4889 6.49175 14.6949 5.64977 14.1699C5.11116 13.8379 4.5482 13.5473 3.96571 13.3003C3.55493 13.1644 3.32509 13.7847 3.70165 13.9969C4.2193 14.2888 5.10962 14.8461 5.22227 15.2035C5.23334 15.2386 5.23599 15.2758 5.22998 15.3121C5.22398 15.3485 5.20951 15.3829 5.18773 15.4125C5.16596 15.4422 5.13749 15.4664 5.10465 15.483C5.0718 15.4997 5.0355 15.5083 4.99868 15.5083C4.94996 15.5038 4.90338 15.4862 4.86398 15.4572C4.78578 15.3996 4.75051 15.3015 4.69479 15.222C4.51112 14.9599 4.28004 14.734 4.01305 14.556C3.76 14.3646 3.53432 14.1396 3.34227 13.8871C2.95055 13.3731 2.56102 12.4731 1.99571 12.3794C1.74571 12.338 1.4943 12.5122 1.51321 12.7469C1.56009 13.3357 3.12634 15.8116 3.73071 16.4094C4.14134 16.8156 5.15368 17.4719 5.50149 18.1452C5.68899 18.5088 5.71024 19.0457 5.76009 19.2469C5.77076 19.3022 5.79487 19.3541 5.83029 19.3979C5.86571 19.4417 5.91136 19.4761 5.96321 19.4981C6.2379 19.6283 7.54571 19.6164 7.78665 19.4119C7.8514 19.3585 7.89395 19.2829 7.90602 19.1999C8.02524 18.5713 7.66227 16.925 7.46618 16.4232Z" fill="#FFFFFF"/>
    <path d="M10.5333 16.4232C10.8677 15.4889 11.5077 14.6949 12.3497 14.1699C12.8883 13.8379 13.4513 13.5473 14.0338 13.3003C14.4446 13.1644 14.6744 13.7847 14.2978 13.9969C13.781 14.2888 12.8903 14.8461 12.7772 15.2032C12.7661 15.2383 12.7635 15.2755 12.7695 15.3118C12.7755 15.3481 12.79 15.3825 12.8118 15.4122C12.8335 15.4419 12.862 15.4661 12.8948 15.4827C12.9277 15.4993 12.964 15.508 13.0008 15.508C13.0495 15.5036 13.096 15.4859 13.1354 15.457C13.2136 15.3996 13.249 15.3016 13.3046 15.2221C13.4883 14.96 13.7194 14.734 13.9864 14.556C14.2395 14.3646 14.4652 14.1396 14.6572 13.8871C15.0489 13.3731 15.4385 12.4731 16.0038 12.3794C16.2538 12.338 16.5052 12.5122 16.4863 12.7469C16.4394 13.3357 14.8732 15.8116 14.2688 16.4094C13.8582 16.8156 12.8458 17.4719 12.498 18.1452C12.3105 18.5088 12.2892 19.0457 12.2394 19.2469C12.2287 19.3022 12.2046 19.3541 12.1692 19.3979C12.1338 19.4417 12.0881 19.4761 12.0363 19.4981C11.7616 19.6283 10.4538 19.6164 10.2128 19.4119C10.1481 19.3585 10.1055 19.2829 10.0935 19.1999C9.97425 18.5713 10.3372 16.925 10.5333 16.4232Z" fill="#FFFFFF"/>
    <path d="M11.9457 2.64938C11.4262 2.65294 10.914 2.77112 10.4455 2.99549C9.97705 3.21985 9.56388 3.54488 9.23551 3.94735C9.20623 3.98388 9.16912 4.01336 9.12691 4.03362C9.08471 4.05388 9.03849 4.06439 8.99168 4.06439C8.94487 4.06439 8.89865 4.05388 8.85645 4.03362C8.81425 4.01336 8.77713 3.98388 8.74785 3.94735C8.4195 3.54486 8.00633 3.21983 7.53785 2.99546C7.06936 2.77109 6.55712 2.65292 6.0377 2.64938C4.02676 2.64938 2.65723 4.39938 2.65723 6.55767C2.65723 7.84845 3.34473 9.93751 4.69129 11.1963C6.60832 12.9884 8.23816 13.4497 8.79066 13.5606C8.9236 13.5874 9.06054 13.5874 9.19348 13.5606C9.74645 13.4499 11.3752 12.9886 13.2921 11.1964C14.6385 9.93766 15.3261 7.8486 15.3261 6.55782C15.3261 4.39923 13.9566 2.64938 11.9457 2.64938ZM7.87645 7.77907C7.85405 7.8002 7.82772 7.81672 7.79894 7.82767C7.77016 7.83862 7.73951 7.84379 7.70873 7.84289C7.67796 7.84199 7.64766 7.83504 7.61957 7.82242C7.56366 7.79732 7.52195 7.74839 7.46858 7.71824C7.39536 7.67687 7.3141 7.65088 7.22978 7.64228C7.17635 7.63683 7.12271 7.63847 7.07021 7.64695C6.94916 7.66651 6.84341 7.76566 6.72183 7.7497C6.66011 7.7416 6.60413 7.70931 6.56621 7.65993C6.52829 7.61055 6.51154 7.54814 6.51965 7.48641C6.52775 7.42469 6.56004 7.36871 6.60941 7.33079C6.88176 7.12157 7.53738 7.07845 7.88582 7.44782C7.92849 7.493 7.95147 7.55327 7.94971 7.61539C7.94796 7.6775 7.9216 7.73638 7.87645 7.77907ZM8.99176 9.68892C8.83192 9.69934 8.67434 9.64688 8.55266 9.54271C8.43099 9.43855 8.35485 9.29095 8.34051 9.13141C8.33666 9.10983 8.33758 9.08767 8.34319 9.06647C8.34879 9.04528 8.35896 9.02557 8.37298 9.00871C8.38699 8.99185 8.40452 8.97825 8.42433 8.96887C8.44415 8.95949 8.46577 8.95454 8.4877 8.95438H9.49566C9.51759 8.95454 9.53921 8.95949 9.55902 8.96887C9.57884 8.97825 9.59637 8.99185 9.61038 9.00871C9.6244 9.02557 9.63457 9.04528 9.64017 9.06647C9.64578 9.08767 9.6467 9.10983 9.64285 9.13141C9.62851 9.29092 9.5524 9.4385 9.43075 9.54266C9.30911 9.64681 9.15157 9.6993 8.99176 9.68892ZM11.4166 7.65954C11.3787 7.70867 11.3229 7.74077 11.2614 7.74883C11.1403 7.76469 11.0348 7.66609 10.9142 7.64659C10.8615 7.63806 10.8076 7.63643 10.754 7.64196C10.7004 7.64747 10.6481 7.65999 10.5984 7.679C10.4839 7.72273 10.3976 7.83928 10.2751 7.84289C10.213 7.84472 10.1527 7.82179 10.1075 7.77915C10.0622 7.73651 10.0358 7.67764 10.034 7.61551C10.0321 7.55337 10.0551 7.49305 10.0977 7.44782C10.446 7.0786 11.1019 7.12157 11.3741 7.33079C11.3985 7.34958 11.4189 7.373 11.4342 7.39969C11.4496 7.42638 11.4595 7.45583 11.4634 7.48636C11.4674 7.51689 11.4653 7.5479 11.4573 7.57761C11.4492 7.60732 11.4354 7.63516 11.4166 7.65954Z" fill="#FFFFFF"/>
</svg>